<svg version="1.1" id="Layer_1" xmlns="http://www.w3.org/2000/svg" xmlns:xlink="http://www.w3.org/1999/xlink" x="0px" y="0px"
	 width="100%" viewBox="0 0 500 500" enable-background="new 0 0 500 500" xml:space="preserve">
<path fill="#000000" opacity="1.000000" stroke="none" 
	d="
M337.000000,501.000000 
	C224.666687,501.000000 112.833389,501.000000 1.000060,501.000000 
	C1.000040,334.333405 1.000040,167.666794 1.000020,1.000149 
	C167.666565,1.000100 334.333130,1.000100 500.999756,1.000050 
	C500.999847,167.666519 500.999847,334.333038 500.999939,500.999786 
	C446.500000,501.000000 392.000000,501.000000 337.000000,501.000000 
M195.343414,175.067154 
	C194.941452,175.113190 194.539474,175.159241 193.436783,175.073715 
	C192.964325,175.023407 192.491867,174.973099 191.629593,174.336731 
	C188.286697,174.573502 188.616135,176.783752 189.434723,178.863831 
	C191.680725,184.570984 194.031738,190.239944 196.490814,195.858536 
	C197.436600,198.019531 198.786942,200.003448 199.976700,202.010681 
	C199.976700,202.010681 199.914734,202.006775 199.936493,202.762344 
	C201.274521,205.193680 202.612564,207.625015 203.986359,210.007828 
	C203.986359,210.007828 203.927902,210.022522 203.985214,210.756866 
	C206.977066,215.532654 209.968933,220.308426 212.966064,225.017929 
	C212.966064,225.017929 212.899673,225.021683 212.950668,225.755310 
	C214.945007,228.859436 216.939346,231.963562 218.990402,235.032028 
	C218.990402,235.032028 218.923615,235.035553 219.015472,235.678757 
	C219.661728,236.467880 220.307983,237.257019 220.992599,237.999222 
	C220.992599,237.999222 220.938538,238.027039 220.936600,238.727539 
	C221.632889,239.581741 222.329178,240.435944 223.072479,241.973404 
	C229.959839,251.733322 236.856598,261.486633 243.730209,271.256226 
	C246.761551,275.564728 255.056183,277.162231 258.984161,270.507874 
	C261.187378,266.775391 264.072449,263.450226 266.573456,259.887604 
	C271.111023,253.423935 275.591156,246.919952 280.437042,239.940598 
	C277.073914,239.111786 274.731964,238.668808 272.480377,237.944809 
	C269.837555,237.095001 267.077087,236.329880 264.725861,234.927414 
	C261.952148,233.272949 258.275085,231.456436 257.299713,228.846771 
	C255.741241,224.677032 260.045349,223.044342 263.182587,221.382629 
	C264.961456,220.440414 266.871185,219.619858 268.397980,218.353760 
	C271.406250,215.859100 274.140869,213.112869 278.617676,213.863251 
	C279.391205,213.992889 280.562012,213.124710 281.209503,212.409744 
	C285.217224,207.984222 287.641937,207.903976 291.742889,212.421478 
	C294.109283,215.028214 296.260376,214.874283 297.873169,211.919540 
	C300.548004,207.019043 303.072876,202.026413 305.432312,196.965988 
	C312.104218,182.656464 318.261597,168.251099 315.128937,151.766449 
	C314.482452,148.364441 313.603790,147.549194 310.263611,148.855835 
	C307.188721,150.058731 303.800262,150.460114 300.549927,151.214569 
	C300.125031,150.782578 299.700134,150.350601 299.275238,149.918625 
	C301.724945,145.373459 304.174652,140.828293 307.080414,135.436935 
	C298.391571,132.541763 290.054596,129.847046 281.791382,126.942413 
	C280.076569,126.339630 278.635529,124.958069 277.068298,123.935425 
	C278.338959,122.644577 279.396240,120.658997 280.919678,120.191025 
	C285.808319,118.689323 290.869354,117.748756 296.096527,116.537781 
	C286.096039,102.555130 255.792801,93.414764 237.929123,99.567856 
	C240.876251,100.652473 242.599396,101.534958 244.426758,101.910881 
	C249.211899,102.895271 253.088318,106.637062 253.067627,109.234825 
	C253.029251,114.050392 249.035645,114.298424 245.974838,115.525711 
	C242.433044,116.945862 238.848038,118.330101 235.169159,119.304695 
	C233.454193,119.758995 231.468384,119.270119 229.615036,119.101845 
	C227.505722,118.910339 225.242188,117.968094 223.336945,118.466209 
	C218.756683,119.663719 214.590149,120.189896 210.435410,117.102577 
	C208.067566,115.343071 205.604996,115.369720 203.140152,117.879745 
	C191.084290,130.156631 186.840378,145.518707 186.232803,161.975037 
	C185.939133,169.929321 186.800629,169.956650 194.972443,169.993576 
	C196.304001,169.999588 197.635300,170.065094 199.010742,170.750427 
	C199.076569,171.176407 199.142395,171.602402 199.081787,172.656540 
	C199.047623,173.082596 199.013458,173.508667 198.496323,174.123734 
	C198.319107,174.409637 198.141891,174.695541 197.473755,175.063812 
	C197.473755,175.063812 196.994019,175.196564 196.471115,175.081116 
	C196.295822,175.114304 196.120514,175.147507 195.343414,175.067154 
M166.306412,181.805832 
	C167.296402,182.005966 168.454880,182.642349 169.249069,182.335602 
	C174.479630,180.315277 179.631714,178.091812 184.792297,175.941711 
	C184.558975,172.474579 182.161346,171.172821 179.134506,172.060852 
	C174.623550,173.384308 170.248215,175.240906 165.976944,177.219788 
	C165.449295,177.464233 165.911911,179.846024 165.366882,181.963425 
	C163.573959,181.838074 160.929932,180.897583 160.134750,181.727859 
	C156.605026,185.413300 153.605438,189.606491 149.765579,194.430832 
	C153.176056,195.031769 156.061340,196.085144 156.425323,195.518631 
	C159.515213,190.709335 165.389343,187.674683 166.306412,181.805832 
M312.820160,263.882202 
	C323.594513,265.811249 333.694855,269.060730 341.755127,278.155457 
	C337.199066,280.986816 333.532776,283.821198 329.431946,285.714325 
	C314.250183,292.722839 297.823639,295.149353 281.472900,296.757782 
	C266.751770,298.205994 251.840134,297.787109 237.009811,298.018951 
	C231.673325,298.102356 226.282501,298.051849 221.001389,297.387512 
	C215.820694,296.735870 210.778549,294.444427 205.621918,294.242218 
	C191.036987,293.670410 177.896225,288.827423 165.271988,282.070953 
	C161.119995,279.848816 160.778687,277.716309 164.198196,274.444397 
	C170.804489,268.123230 179.427872,266.181061 187.883209,263.940582 
	C194.030487,262.311676 200.246155,260.905701 206.312500,259.018402 
	C210.592697,257.686798 210.655609,253.605881 209.724075,250.417877 
	C208.959595,247.801575 206.777084,244.247864 204.580536,243.703735 
	C200.848877,242.779327 196.522263,243.457901 192.607590,244.256531 
	C186.579086,245.486404 180.567902,247.045898 174.764404,249.079269 
	C165.008148,252.497589 155.251846,255.918564 148.154846,264.290558 
	C142.915039,270.471710 142.638275,283.226532 147.549881,289.509735 
	C153.514755,297.140350 161.515900,301.376312 170.351288,304.029999 
	C179.716232,306.842743 189.300125,308.990631 198.875168,311.019409 
	C206.562332,312.648163 214.342743,314.400085 222.146698,314.786621 
	C234.836899,315.415131 247.590485,314.650421 260.298553,315.058075 
	C279.254242,315.666138 297.801147,313.009644 316.179749,308.875031 
	C327.476715,306.333588 338.460846,302.719482 348.052643,295.953644 
	C355.578003,290.645447 360.069031,284.055908 358.216003,273.978668 
	C356.351929,263.841278 348.835358,258.415131 341.097107,254.891357 
	C327.424438,248.665268 313.099335,243.287872 297.525024,243.969833 
	C295.927216,244.039780 293.859222,244.641449 292.890137,245.759674 
	C289.515411,249.653610 290.503540,256.779602 295.282593,258.864532 
	C300.551025,261.162964 306.436737,262.046509 312.820160,263.882202 
M319.029724,147.436096 
	C322.690491,156.744919 326.351227,166.053757 330.011993,175.362595 
	C330.386780,175.135132 330.761597,174.907684 331.136414,174.680222 
	C337.706818,155.569794 344.277252,136.459366 351.155640,116.453293 
	C349.266907,117.247307 348.259094,117.430214 347.567871,117.998322 
	C339.370453,124.735703 331.018036,131.309235 323.192688,138.458160 
	C321.105591,140.364853 315.650940,141.556396 319.029724,147.436096 
M335.088165,114.498283 
	C332.399719,115.173592 329.742584,116.041496 327.016388,116.484604 
	C321.122742,117.442543 315.201294,118.242386 309.277283,118.997375 
	C301.210052,120.025536 293.129761,120.951454 283.822205,122.069275 
	C285.662506,123.754494 286.246124,124.673691 287.057709,124.971329 
	C293.647827,127.388222 300.249146,129.786102 306.926056,131.945541 
	C308.325470,132.398132 310.262634,132.296356 311.592529,131.677536 
	C320.877319,127.357140 330.088745,122.876404 339.267517,118.333519 
	C340.834900,117.557770 342.132965,116.237854 343.555450,115.169319 
	C343.311798,114.818710 343.068146,114.468102 342.824493,114.117493 
	C340.504333,114.117493 338.184204,114.117493 335.088165,114.498283 
M145.950958,204.458206 
	C143.410324,212.393600 143.410324,212.393600 149.422256,213.701004 
	C151.097366,208.694489 152.797470,203.613266 154.528931,198.438293 
	C152.158264,197.884445 150.314423,197.453690 148.534348,197.037811 
	C147.638885,199.440811 146.851700,201.553299 145.950958,204.458206 
M315.063568,140.496307 
	C319.139313,137.371918 323.242310,134.281418 327.244354,131.065323 
	C327.603729,130.776535 327.572052,129.219666 327.266510,129.044006 
	C326.583160,128.651154 325.466187,128.423279 324.783997,128.720566 
	C321.964783,129.949158 319.364716,131.813843 316.456207,132.674957 
	C311.352936,134.185883 311.915253,136.699738 315.063568,140.496307 
M148.680069,216.424805 
	C147.115311,216.192169 145.550568,215.959549 143.282822,215.622421 
	C145.424377,220.118301 141.648148,225.281387 146.545639,228.771042 
	C150.818115,225.521927 148.360550,221.055740 148.680069,216.424805 
M307.034882,141.590668 
	C306.541443,143.003204 306.047974,144.415726 305.554535,145.828262 
	C308.227509,145.502380 310.900482,145.176483 313.686676,144.836777 
	C311.254211,139.426437 309.882629,138.651932 307.034882,141.590668 
z"/>
<path fill="#096DB7" opacity="1.000000" stroke="none" 
	d="
M198.966721,170.103119 
	C197.635300,170.065094 196.304001,169.999588 194.972443,169.993576 
	C186.800629,169.956650 185.939133,169.929321 186.232803,161.975037 
	C186.840378,145.518707 191.084290,130.156631 203.140152,117.879745 
	C205.604996,115.369720 208.067566,115.343071 210.435410,117.102577 
	C214.590149,120.189896 218.756683,119.663719 223.336945,118.466209 
	C225.242188,117.968094 227.505722,118.910339 229.615036,119.101845 
	C231.468384,119.270119 233.454193,119.758995 235.169159,119.304695 
	C238.848038,118.330101 242.433044,116.945862 245.974838,115.525711 
	C249.035645,114.298424 253.029251,114.050392 253.067627,109.234825 
	C253.088318,106.637062 249.211899,102.895271 244.426758,101.910881 
	C242.599396,101.534958 240.876251,100.652473 237.929123,99.567856 
	C255.792801,93.414764 286.096039,102.555130 296.096527,116.537781 
	C290.869354,117.748756 285.808319,118.689323 280.919678,120.191025 
	C279.396240,120.658997 278.338959,122.644577 277.068298,123.935425 
	C278.635529,124.958069 280.076569,126.339630 281.791382,126.942413 
	C290.054596,129.847046 298.391571,132.541763 307.080414,135.436935 
	C304.174652,140.828293 301.724945,145.373459 299.275238,149.918625 
	C299.700134,150.350601 300.125031,150.782578 300.549927,151.214569 
	C303.800262,150.460114 307.188721,150.058731 310.263611,148.855835 
	C313.603790,147.549194 314.482452,148.364441 315.128937,151.766449 
	C318.261597,168.251099 312.104218,182.656464 305.432312,196.965988 
	C303.072876,202.026413 300.548004,207.019043 297.873169,211.919540 
	C296.260376,214.874283 294.109283,215.028214 291.742889,212.421478 
	C287.641937,207.903976 285.217224,207.984222 281.209503,212.409744 
	C280.562012,213.124710 279.391205,213.992889 278.617676,213.863251 
	C274.140869,213.112869 271.406250,215.859100 268.397980,218.353760 
	C266.871185,219.619858 264.961456,220.440414 263.182587,221.382629 
	C260.045349,223.044342 255.741241,224.677032 257.299713,228.846771 
	C258.275085,231.456436 261.952148,233.272949 264.725861,234.927414 
	C267.077087,236.329880 269.837555,237.095001 272.480377,237.944809 
	C274.731964,238.668808 277.073914,239.111786 280.437042,239.940598 
	C275.591156,246.919952 271.111023,253.423935 266.573456,259.887604 
	C264.072449,263.450226 261.187378,266.775391 258.984161,270.507874 
	C255.056183,277.162231 246.761551,275.564728 243.730209,271.256226 
	C236.856598,261.486633 229.959839,251.733322 223.021332,241.284088 
	C222.292969,239.738861 221.615753,238.882950 220.938538,238.027039 
	C220.938538,238.027039 220.992599,237.999222 220.932800,237.703415 
	C220.223221,236.616913 219.573425,235.826233 218.923615,235.035553 
	C218.923615,235.035553 218.990402,235.032028 218.966843,234.673355 
	C216.928757,231.217010 214.914215,228.119354 212.899673,225.021683 
	C212.899673,225.021683 212.966064,225.017929 212.920868,224.680023 
	C209.893082,219.568939 206.910492,214.795731 203.927902,210.022522 
	C203.927902,210.022522 203.986359,210.007828 203.984573,209.642242 
	C202.626770,206.853378 201.270752,204.430069 199.914734,202.006775 
	C199.914734,202.006775 199.976700,202.010681 199.970352,201.639603 
	C197.960464,196.076324 195.719254,190.959579 194.038132,185.665009 
	C192.943665,182.218124 192.664078,178.512497 192.019409,174.922791 
	C192.491867,174.973099 192.964325,175.023407 193.997528,175.248077 
	C195.004959,175.593292 195.451645,175.764130 196.087738,175.821808 
	C196.524475,175.549652 196.763428,175.378967 196.994019,175.196564 
	C196.994019,175.196564 197.473755,175.063812 197.978348,175.027557 
	C198.655853,174.991699 198.828751,174.992081 199.006531,174.993362 
	C199.011444,174.994278 199.024124,174.995972 199.143555,175.030823 
	C199.263000,175.065689 199.634048,175.077087 199.634048,175.077087 
	C199.634048,175.077087 199.995468,174.987228 200.134018,174.805542 
	C200.458801,174.383713 200.644073,174.142807 201.161469,173.913254 
	C201.938583,173.943344 202.382599,173.961334 202.952423,174.243027 
	C203.387741,174.733322 203.697250,174.959915 204.128723,175.330826 
	C204.419205,175.663193 204.599335,175.839386 204.863541,176.233032 
	C204.936005,176.462341 205.009155,176.937714 204.963654,177.301453 
	C203.614395,182.205872 206.024933,184.143311 210.021057,184.978134 
	C210.010071,184.994507 210.045807,184.971100 210.096222,185.313629 
	C211.097748,187.437439 212.048874,189.218719 212.865326,191.065979 
	C212.565613,191.317078 212.400558,191.502182 212.235504,191.687286 
	C212.347321,191.687759 212.516998,191.734787 212.560684,191.680466 
	C212.728989,191.471222 212.856979,191.229568 213.350296,190.967041 
	C215.414978,190.291855 217.129349,189.649597 218.953644,189.243500 
	C219.352188,189.644714 219.640808,189.809738 220.207458,189.977051 
	C220.670822,189.977219 220.856155,189.975113 221.018799,189.985046 
	C220.996109,189.997086 221.020401,189.951721 221.182678,190.199951 
	C222.576401,190.606277 223.807877,190.764374 225.023071,190.957748 
	C225.006821,190.993011 224.936310,190.960464 225.221573,190.967422 
	C225.697067,190.974503 225.887314,190.974625 226.295837,191.012390 
	C226.514114,191.050049 226.934296,191.190445 227.292053,191.327209 
	C233.450806,191.375580 239.251816,191.287201 245.368210,191.134399 
	C246.111511,191.034225 246.539398,190.998459 247.279053,191.111206 
	C253.587036,189.868011 259.613037,188.586060 265.550110,186.976089 
	C266.534790,186.709061 267.131073,185.009857 267.913940,183.943329 
	C267.920990,183.914185 267.980927,183.912003 268.351288,183.899765 
	C278.207520,180.824142 286.946777,176.851517 290.668396,166.110107 
	C297.224182,164.338577 299.135406,160.265457 295.416382,155.168625 
	C289.815216,156.078476 288.973389,163.119049 282.726898,164.367020 
	C279.614136,164.988922 277.644379,171.331757 275.153320,175.119995 
	C275.149078,175.153244 275.085754,175.175171 274.738342,175.253204 
	C269.621979,177.267426 264.702881,178.907440 260.127991,181.226486 
	C255.898987,183.370209 251.976624,185.165665 249.321350,182.820694 
	C244.379929,184.237885 240.586197,186.561172 237.238800,186.036560 
	C229.559097,184.832916 222.084061,182.285995 214.567719,180.138184 
	C213.857513,179.935226 212.977966,178.664917 213.028809,177.950775 
	C213.074677,177.306564 214.245605,176.682999 214.997086,176.160736 
	C216.623581,175.030396 218.299179,173.970718 219.969254,172.577728 
	C219.952942,171.869125 219.922043,171.464951 220.260162,171.051620 
	C221.367218,171.027771 222.105301,171.013092 222.911926,171.215591 
	C222.980499,171.432770 223.046310,171.883392 223.254028,172.165466 
	C225.974167,172.631302 228.486588,172.815048 230.999512,172.999390 
	C231.000000,173.000000 231.001175,173.000992 231.015259,173.344467 
	C231.570267,174.760315 232.111206,175.832687 232.652130,176.905075 
	C233.167831,176.567123 234.166260,176.157623 234.128342,175.901718 
	C233.276047,170.149612 238.426605,169.270111 241.469116,166.663605 
	C243.429947,164.983795 244.223297,163.198227 241.247437,161.454987 
	C243.237793,160.426300 245.116348,159.716080 247.010025,159.023254 
	C247.025162,159.040665 247.006058,158.994858 247.073151,158.661896 
	C247.158783,153.279526 242.078613,145.739594 237.782684,144.440582 
	C227.675018,141.384155 210.831573,148.190964 205.717606,157.446167 
	C205.081558,158.597290 204.269241,159.926727 204.345978,161.121704 
	C204.429779,162.426819 205.452637,163.671631 206.039032,164.964478 
	C206.011887,164.986252 206.051971,164.929321 206.048828,165.291504 
	C206.038620,166.378067 206.031570,167.102463 205.723145,167.972244 
	C204.626572,168.443466 203.831406,168.769272 202.868698,168.931458 
	C201.456360,169.212936 200.211533,169.658020 198.966721,170.103119 
z"/>
<path fill="#0B6DB6" opacity="1.000000" stroke="none" 
	d="
M312.436859,263.714294 
	C306.436737,262.046509 300.551025,261.162964 295.282593,258.864532 
	C290.503540,256.779602 289.515411,249.653610 292.890137,245.759674 
	C293.859222,244.641449 295.927216,244.039780 297.525024,243.969833 
	C313.099335,243.287872 327.424438,248.665268 341.097107,254.891357 
	C348.835358,258.415131 356.351929,263.841278 358.216003,273.978668 
	C360.069031,284.055908 355.578003,290.645447 348.052643,295.953644 
	C338.460846,302.719482 327.476715,306.333588 316.179749,308.875031 
	C297.801147,313.009644 279.254242,315.666138 260.298553,315.058075 
	C247.590485,314.650421 234.836899,315.415131 222.146698,314.786621 
	C214.342743,314.400085 206.562332,312.648163 198.875168,311.019409 
	C189.300125,308.990631 179.716232,306.842743 170.351288,304.029999 
	C161.515900,301.376312 153.514755,297.140350 147.549881,289.509735 
	C142.638275,283.226532 142.915039,270.471710 148.154846,264.290558 
	C155.251846,255.918564 165.008148,252.497589 174.764404,249.079269 
	C180.567902,247.045898 186.579086,245.486404 192.607590,244.256531 
	C196.522263,243.457901 200.848877,242.779327 204.580536,243.703735 
	C206.777084,244.247864 208.959595,247.801575 209.724075,250.417877 
	C210.655609,253.605881 210.592697,257.686798 206.312500,259.018402 
	C200.246155,260.905701 194.030487,262.311676 187.883209,263.940582 
	C179.427872,266.181061 170.804489,268.123230 164.198196,274.444397 
	C160.778687,277.716309 161.119995,279.848816 165.271988,282.070953 
	C177.896225,288.827423 191.036987,293.670410 205.621918,294.242218 
	C210.778549,294.444427 215.820694,296.735870 221.001389,297.387512 
	C226.282501,298.051849 231.673325,298.102356 237.009811,298.018951 
	C251.840134,297.787109 266.751770,298.205994 281.472900,296.757782 
	C297.823639,295.149353 314.250183,292.722839 329.431946,285.714325 
	C333.532776,283.821198 337.199066,280.986816 341.755127,278.155457 
	C333.694855,269.060730 323.594513,265.811249 312.436859,263.714294 
z"/>
<path fill="#126FB4" opacity="1.000000" stroke="none" 
	d="
M318.946350,147.045776 
	C315.650940,141.556396 321.105591,140.364853 323.192688,138.458160 
	C331.018036,131.309235 339.370453,124.735703 347.567871,117.998322 
	C348.259094,117.430214 349.266907,117.247307 351.155640,116.453293 
	C344.277252,136.459366 337.706818,155.569794 331.136414,174.680222 
	C330.761597,174.907684 330.386780,175.135132 330.011993,175.362595 
	C326.351227,166.053757 322.690491,156.744919 318.946350,147.045776 
z"/>
<path fill="#126DB2" opacity="1.000000" stroke="none" 
	d="
M335.476105,114.307892 
	C338.184204,114.117493 340.504333,114.117493 342.824493,114.117493 
	C343.068146,114.468102 343.311798,114.818710 343.555450,115.169319 
	C342.132965,116.237854 340.834900,117.557770 339.267517,118.333519 
	C330.088745,122.876404 320.877319,127.357140 311.592529,131.677536 
	C310.262634,132.296356 308.325470,132.398132 306.926056,131.945541 
	C300.249146,129.786102 293.647827,127.388222 287.057709,124.971329 
	C286.246124,124.673691 285.662506,123.754494 283.822205,122.069275 
	C293.129761,120.951454 301.210052,120.025536 309.277283,118.997375 
	C315.201294,118.242386 321.122742,117.442543 327.016388,116.484604 
	C329.742584,116.041496 332.399719,115.173592 335.476105,114.307892 
z"/>
<path fill="#2472AB" opacity="1.000000" stroke="none" 
	d="
M165.915634,181.237381 
	C165.911911,179.846024 165.449295,177.464233 165.976944,177.219788 
	C170.248215,175.240906 174.623550,173.384308 179.134506,172.060852 
	C182.161346,171.172821 184.558975,172.474579 184.792297,175.941711 
	C179.631714,178.091812 174.479630,180.315277 169.249069,182.335602 
	C168.454880,182.642349 167.296402,182.005966 166.075653,181.509048 
	C165.844894,181.212265 165.915634,181.237381 165.915634,181.237381 
z"/>
<path fill="#1E6FAB" opacity="1.000000" stroke="none" 
	d="
M165.641266,181.600403 
	C165.915634,181.237381 165.844894,181.212265 165.840271,181.194702 
	C165.389343,187.674683 159.515213,190.709335 156.425323,195.518631 
	C156.061340,196.085144 153.176056,195.031769 149.765579,194.430832 
	C153.605438,189.606491 156.605026,185.413300 160.134750,181.727859 
	C160.929932,180.897583 163.573959,181.838074 165.641266,181.600403 
z"/>
<path fill="#1E6FAB" opacity="1.000000" stroke="none" 
	d="
M146.007721,204.062012 
	C146.851700,201.553299 147.638885,199.440811 148.534348,197.037811 
	C150.314423,197.453690 152.158264,197.884445 154.528931,198.438293 
	C152.797470,203.613266 151.097366,208.694489 149.422256,213.701004 
	C143.410324,212.393600 143.410324,212.393600 146.007721,204.062012 
z"/>
<path fill="#2472AB" opacity="1.000000" stroke="none" 
	d="
M314.802979,140.241455 
	C311.915253,136.699738 311.352936,134.185883 316.456207,132.674957 
	C319.364716,131.813843 321.964783,129.949158 324.783997,128.720566 
	C325.466187,128.423279 326.583160,128.651154 327.266510,129.044006 
	C327.572052,129.219666 327.603729,130.776535 327.244354,131.065323 
	C323.242310,134.281418 319.139313,137.371918 314.802979,140.241455 
z"/>
<path fill="#126DB2" opacity="1.000000" stroke="none" 
	d="
M148.802521,216.817413 
	C148.360550,221.055740 150.818115,225.521927 146.545639,228.771042 
	C141.648148,225.281387 145.424377,220.118301 143.282822,215.622421 
	C145.550568,215.959549 147.115311,216.192169 148.802521,216.817413 
z"/>
<path fill="#2472AB" opacity="1.000000" stroke="none" 
	d="
M191.824493,174.629761 
	C192.664078,178.512497 192.943665,182.218124 194.038132,185.665009 
	C195.719254,190.959579 197.960464,196.076324 199.958481,201.668289 
	C198.786942,200.003448 197.436600,198.019531 196.490814,195.858536 
	C194.031738,190.239944 191.680725,184.570984 189.434723,178.863831 
	C188.616135,176.783752 188.286697,174.573502 191.824493,174.629761 
z"/>
<path fill="#2472AB" opacity="1.000000" stroke="none" 
	d="
M307.242462,141.292679 
	C309.882629,138.651932 311.254211,139.426437 313.686676,144.836777 
	C310.900482,145.176483 308.227509,145.502380 305.554535,145.828262 
	C306.047974,144.415726 306.541443,143.003204 307.242462,141.292679 
z"/>
<path fill="#2472AB" opacity="1.000000" stroke="none" 
	d="
M203.956558,210.389694 
	C206.910492,214.795731 209.893082,219.568939 212.918243,224.713165 
	C209.968933,220.308426 206.977066,215.532654 203.956558,210.389694 
z"/>
<path fill="#2472AB" opacity="1.000000" stroke="none" 
	d="
M212.925171,225.388489 
	C214.914215,228.119354 216.928757,231.217010 218.938477,234.691193 
	C216.939346,231.963562 214.945007,228.859436 212.925171,225.388489 
z"/>
<path fill="#116EB3" opacity="1.000000" stroke="none" 
	d="
M198.988739,170.426773 
	C200.211533,169.658020 201.456360,169.212936 202.959702,169.237549 
	C203.087692,171.131271 202.957169,172.555298 202.826630,173.979324 
	C202.382599,173.961334 201.938583,173.943344 201.053391,173.689453 
	C200.144226,172.978516 199.676224,172.503448 199.208221,172.028381 
	C199.142395,171.602402 199.076569,171.176407 198.988739,170.426773 
z"/>
<path fill="#2472AB" opacity="1.000000" stroke="none" 
	d="
M199.925613,202.384552 
	C201.270752,204.430069 202.626770,206.853378 203.966690,209.666504 
	C202.612564,207.625015 201.274521,205.193680 199.925613,202.384552 
z"/>
<path fill="#2472AB" opacity="1.000000" stroke="none" 
	d="
M220.937561,238.377289 
	C221.615753,238.882950 222.292969,239.738861 222.997833,240.942444 
	C222.329178,240.435944 221.632889,239.581741 220.937561,238.377289 
z"/>
<path fill="#2472AB" opacity="1.000000" stroke="none" 
	d="
M218.969543,235.357147 
	C219.573425,235.826233 220.223221,236.616913 220.913635,237.726868 
	C220.307983,237.257019 219.661728,236.467880 218.969543,235.357147 
z"/>
<path fill="#2472AB" opacity="1.000000" stroke="none" 
	d="
M199.145004,172.342468 
	C199.676224,172.503448 200.144226,172.978516 200.720306,173.677368 
	C200.644073,174.142807 200.458801,174.383713 199.891190,174.808228 
	C199.509811,174.992569 199.024124,174.995972 199.024124,174.995972 
	C199.024124,174.995972 199.011444,174.994278 199.003204,174.729095 
	C198.989746,174.287506 198.984528,174.111115 198.979294,173.934723 
	C199.013458,173.508667 199.047623,173.082596 199.145004,172.342468 
z"/>
<path fill="#2472AB" opacity="1.000000" stroke="none" 
	d="
M195.898331,175.934967 
	C195.451645,175.764130 195.004959,175.593292 194.347900,175.313873 
	C194.539474,175.159241 194.941452,175.113190 195.635040,175.312607 
	C195.926651,175.558060 195.898331,175.934967 195.898331,175.934967 
z"/>
<path fill="#116EB3" opacity="1.000000" stroke="none" 
	d="
M198.737808,174.029236 
	C198.984528,174.111115 198.989746,174.287506 198.998306,174.728180 
	C198.828751,174.992081 198.655853,174.991699 198.223801,174.986374 
	C198.141891,174.695541 198.319107,174.409637 198.737808,174.029236 
z"/>
<path fill="#116EB3" opacity="1.000000" stroke="none" 
	d="
M196.087738,175.821808 
	C195.898331,175.934967 195.926651,175.558060 195.935913,175.369385 
	C196.120514,175.147507 196.295822,175.114304 196.732574,175.138840 
	C196.763428,175.378967 196.524475,175.549652 196.087738,175.821808 
z"/>
<path fill="#116EB3" opacity="1.000000" stroke="none" 
	d="
M206.024536,167.826843 
	C206.031570,167.102463 206.038620,166.378067 206.383820,165.191483 
	C209.411026,161.411652 212.100098,158.094009 215.035019,154.473068 
	C210.680084,153.670029 206.859970,158.679413 206.066193,164.942719 
	C205.452637,163.671631 204.429779,162.426819 204.345978,161.121704 
	C204.269241,159.926727 205.081558,158.597290 205.717606,157.446167 
	C210.831573,148.190964 227.675018,141.384155 237.782684,144.440582 
	C242.078613,145.739594 247.158783,153.279526 247.070129,158.664459 
	C247.000000,159.000000 246.994888,159.005859 246.994888,159.005859 
	C245.116348,159.716080 243.237793,160.426300 241.162048,161.546875 
	C240.964859,161.957214 240.791656,162.139709 240.433319,162.090759 
	C234.507599,164.752197 228.937271,167.456604 223.382385,170.192383 
	C223.131287,170.316055 223.019852,170.723267 222.843353,170.998413 
	C222.105301,171.013092 221.367218,171.027771 219.929901,170.903290 
	C214.573364,170.932587 209.718338,171.990143 206.024536,167.826843 
M236.054962,149.620667 
	C238.054886,152.107666 240.054810,154.594666 242.401917,157.513412 
	C243.948578,151.839584 241.881729,148.516739 237.717773,146.242691 
	C236.912781,145.803070 235.795914,145.934433 234.822922,145.802414 
	C235.068466,146.891205 235.314026,147.979996 236.054962,149.620667 
M228.884293,146.578537 
	C228.258652,146.275772 227.499023,145.575546 227.028900,145.734055 
	C223.708374,146.853592 220.447296,148.149506 216.575272,149.612854 
	C217.608261,150.742630 218.683151,152.340790 219.002090,152.201996 
	C222.361053,150.740082 225.599319,149.000885 228.884293,146.578537 
z"/>
<path fill="#116EB3" opacity="1.000000" stroke="none" 
	d="
M218.843719,189.007324 
	C217.129349,189.649597 215.414978,190.291855 213.350296,190.967041 
	C212.048874,189.218719 211.097748,187.437439 210.444092,185.333160 
	C211.848160,185.635315 212.954788,186.260452 214.061401,186.885590 
	C214.460052,186.707932 214.858704,186.530258 215.257355,186.352585 
	C214.756210,185.228943 214.405701,184.002640 213.723831,183.002182 
	C212.103577,180.624969 210.326431,178.354691 208.622528,176.054474 
	C213.092697,174.803085 216.523697,173.842606 219.954681,172.882141 
	C218.299179,173.970718 216.623581,175.030396 214.997086,176.160736 
	C214.245605,176.682999 213.074677,177.306564 213.028809,177.950775 
	C212.977966,178.664917 213.857513,179.935226 214.567719,180.138184 
	C222.084061,182.285995 229.559097,184.832916 237.238800,186.036560 
	C240.586197,186.561172 244.379929,184.237885 249.321350,182.820694 
	C251.976624,185.165665 255.898987,183.370209 260.127991,181.226486 
	C264.702881,178.907440 269.621979,177.267426 274.756989,175.589752 
	C276.156311,176.315186 277.710724,177.465576 278.138977,177.139038 
	C281.106445,174.876358 283.926727,172.394867 286.588104,169.774216 
	C287.271027,169.101761 287.215179,167.679092 287.641083,166.059814 
	C282.931061,169.465668 279.044312,172.276215 275.157593,175.086761 
	C277.644379,171.331757 279.614136,164.988922 282.726898,164.367020 
	C288.973389,163.119049 289.815216,156.078476 295.416382,155.168625 
	C299.135406,160.265457 297.224182,164.338577 290.668396,166.110107 
	C286.946777,176.851517 278.207520,180.824142 268.507202,183.622192 
	C269.466858,182.458084 270.640961,181.559311 272.374695,180.232132 
	C266.344696,179.870148 259.652130,183.620041 259.682220,186.693298 
	C262.414886,185.789307 265.160858,184.880905 267.906860,183.972504 
	C267.131073,185.009857 266.534790,186.709061 265.550110,186.976089 
	C259.613037,188.586060 253.587036,189.868011 247.488617,190.791275 
	C249.693375,189.433487 253.233582,190.479202 254.057068,185.462708 
	C250.100403,186.306183 246.823502,186.914337 243.601456,187.737320 
	C242.360123,188.054398 241.243515,188.859879 240.070068,189.442810 
	C241.406906,189.976227 242.739212,190.521530 244.084076,191.033890 
	C244.384354,191.148270 244.728729,191.146896 245.052811,191.198822 
	C239.251816,191.287201 233.450806,191.375580 227.735489,191.251953 
	C229.627243,191.007980 231.445831,191.085709 233.232376,190.882187 
	C233.826828,190.814484 234.339096,190.025406 234.888947,189.566101 
	C234.395523,189.050156 233.974548,188.197403 233.396896,188.073166 
	C229.774033,187.293961 226.133301,186.395874 222.459900,186.173035 
	C221.316025,186.103638 220.052475,188.007034 218.843719,189.007324 
z"/>
<path fill="#000000" opacity="1.000000" stroke="none" 
	d="
M219.969254,172.577728 
	C216.523697,173.842606 213.092697,174.803085 208.622528,176.054474 
	C210.326431,178.354691 212.103577,180.624969 213.723831,183.002182 
	C214.405701,184.002640 214.756210,185.228943 215.257355,186.352585 
	C214.858704,186.530258 214.460052,186.707932 214.061401,186.885590 
	C212.954788,186.260452 211.848160,185.635315 210.393677,184.990631 
	C210.045807,184.971100 210.010071,184.994507 209.975708,184.627518 
	C208.297287,181.819580 206.653229,179.378647 205.009155,176.937714 
	C205.009155,176.937714 204.936005,176.462341 204.879059,175.992401 
	C204.648224,175.172806 204.376434,175.060822 204.006760,175.186523 
	C203.697250,174.959915 203.387741,174.733322 202.952423,174.243027 
	C202.957169,172.555298 203.087692,171.131271 203.127228,169.401154 
	C203.831406,168.769272 204.626572,168.443466 205.723145,167.972244 
	C209.718338,171.990143 214.573364,170.932587 219.560898,170.912445 
	C219.922043,171.464951 219.952942,171.869125 219.969254,172.577728 
z"/>
<path fill="#116EB3" opacity="1.000000" stroke="none" 
	d="
M230.999023,172.998810 
	C228.486588,172.815048 225.974167,172.631302 223.677765,172.213852 
	C231.653564,172.352707 236.798004,168.234268 240.791656,162.139709 
	C240.791656,162.139709 240.964859,161.957214 241.050247,161.865326 
	C244.223297,163.198227 243.429947,164.983795 241.469116,166.663605 
	C238.426605,169.270111 233.276047,170.149612 234.128342,175.901718 
	C234.166260,176.157623 233.167831,176.567123 232.652130,176.905075 
	C232.111206,175.832687 231.570267,174.760315 231.035339,173.331421 
	C231.041367,172.974884 230.999023,172.998810 230.999023,172.998810 
z"/>
<path fill="#000000" opacity="1.000000" stroke="none" 
	d="
M240.433319,162.090759 
	C236.798004,168.234268 231.653564,172.352707 223.470062,171.931763 
	C223.046310,171.883392 222.980499,171.432770 222.911926,171.215591 
	C223.019852,170.723267 223.131287,170.316055 223.382385,170.192383 
	C228.937271,167.456604 234.507599,164.752197 240.433319,162.090759 
z"/>
<path fill="#000000" opacity="1.000000" stroke="none" 
	d="
M218.953644,189.243500 
	C220.052475,188.007034 221.316025,186.103638 222.459900,186.173035 
	C226.133301,186.395874 229.774033,187.293961 233.396896,188.073166 
	C233.974548,188.197403 234.395523,189.050156 234.888947,189.566101 
	C234.339096,190.025406 233.826828,190.814484 233.232376,190.882187 
	C231.445831,191.085709 229.627243,191.007980 227.377731,191.115204 
	C226.934296,191.190445 226.514114,191.050049 226.204681,190.788574 
	C225.575607,190.671555 225.255966,190.816010 224.936310,190.960480 
	C224.936310,190.960464 225.006821,190.993011 224.667267,190.984009 
	C223.225266,190.633911 222.122833,190.292816 221.020401,189.951721 
	C221.020401,189.951721 220.996109,189.997086 220.937744,189.759583 
	C220.562729,189.672974 220.246078,189.823868 219.929443,189.974777 
	C219.640808,189.809738 219.352188,189.644714 218.953644,189.243500 
z"/>
<path fill="#000000" opacity="1.000000" stroke="none" 
	d="
M245.368210,191.134399 
	C244.728729,191.146896 244.384354,191.148270 244.084076,191.033890 
	C242.739212,190.521530 241.406906,189.976227 240.070068,189.442810 
	C241.243515,188.859879 242.360123,188.054398 243.601456,187.737320 
	C246.823502,186.914337 250.100403,186.306183 254.057068,185.462708 
	C253.233582,190.479202 249.693375,189.433487 247.176865,190.642761 
	C246.539398,190.998459 246.111511,191.034225 245.368210,191.134399 
z"/>
<path fill="#116EB3" opacity="1.000000" stroke="none" 
	d="
M204.963669,177.301453 
	C206.653229,179.378647 208.297287,181.819580 209.986694,184.611145 
	C206.024933,184.143311 203.614395,182.205872 204.963669,177.301453 
z"/>
<path fill="#116EB3" opacity="1.000000" stroke="none" 
	d="
M221.182678,190.199951 
	C222.122833,190.292816 223.225266,190.633911 224.683517,190.948746 
	C223.807877,190.764374 222.576401,190.606277 221.182678,190.199951 
z"/>
<path fill="#116EB3" opacity="1.000000" stroke="none" 
	d="
M212.865326,191.065979 
	C212.856979,191.229568 212.728989,191.471222 212.560684,191.680466 
	C212.516998,191.734787 212.347321,191.687759 212.235504,191.687286 
	C212.400558,191.502182 212.565613,191.317078 212.865326,191.065979 
z"/>
<path fill="#116EB3" opacity="1.000000" stroke="none" 
	d="
M225.221573,190.967438 
	C225.255966,190.816010 225.575607,190.671555 225.986389,190.750916 
	C225.887314,190.974625 225.697067,190.974503 225.221573,190.967438 
z"/>
<path fill="#116EB3" opacity="1.000000" stroke="none" 
	d="
M247.003021,158.997437 
	C247.006058,158.994858 247.025162,159.040665 247.010025,159.023254 
	C246.994888,159.005859 247.000000,159.000000 247.003021,158.997437 
z"/>
<path fill="#116EB3" opacity="1.000000" stroke="none" 
	d="
M199.143555,175.030823 
	C199.024124,174.995972 199.509811,174.992569 199.752640,174.989899 
	C199.995468,174.987228 199.634048,175.077087 199.634048,175.077087 
	C199.634048,175.077087 199.263000,175.065689 199.143555,175.030823 
z"/>
<path fill="#116EB3" opacity="1.000000" stroke="none" 
	d="
M220.207458,189.977051 
	C220.246078,189.823868 220.562729,189.672974 220.960419,189.747528 
	C220.856155,189.975113 220.670822,189.977219 220.207458,189.977051 
z"/>
<path fill="#116EB3" opacity="1.000000" stroke="none" 
	d="
M204.128723,175.330826 
	C204.376434,175.060822 204.648224,175.172806 204.806580,175.763092 
	C204.599335,175.839386 204.419205,175.663193 204.128723,175.330826 
z"/>
<path fill="#000000" opacity="1.000000" stroke="none" 
	d="
M235.807266,149.344727 
	C235.314026,147.979996 235.068466,146.891205 234.822922,145.802414 
	C235.795914,145.934433 236.912781,145.803070 237.717773,146.242691 
	C241.881729,148.516739 243.948578,151.839584 242.401917,157.513412 
	C240.054810,154.594666 238.054886,152.107666 235.807266,149.344727 
z"/>
<path fill="#000000" opacity="1.000000" stroke="none" 
	d="
M228.877594,146.958389 
	C225.599319,149.000885 222.361053,150.740082 219.002090,152.201996 
	C218.683151,152.340790 217.608261,150.742630 216.575272,149.612854 
	C220.447296,148.149506 223.708374,146.853592 227.028900,145.734055 
	C227.499023,145.575546 228.258652,146.275772 228.877594,146.958389 
z"/>
<path fill="#000000" opacity="1.000000" stroke="none" 
	d="
M206.039032,164.964478 
	C206.859970,158.679413 210.680084,153.670029 215.035019,154.473068 
	C212.100098,158.094009 209.411026,161.411652 206.386963,164.829300 
	C206.051971,164.929321 206.011887,164.986252 206.039032,164.964478 
z"/>
<path fill="#000000" opacity="1.000000" stroke="none" 
	d="
M275.153320,175.119995 
	C279.044312,172.276215 282.931061,169.465668 287.641083,166.059814 
	C287.215179,167.679092 287.271027,169.101761 286.588104,169.774216 
	C283.926727,172.394867 281.106445,174.876358 278.138977,177.139038 
	C277.710724,177.465576 276.156311,176.315186 275.104401,175.511719 
	C275.085754,175.175171 275.149078,175.153244 275.153320,175.119995 
z"/>
<path fill="#000000" opacity="1.000000" stroke="none" 
	d="
M267.913940,183.943344 
	C265.160858,184.880905 262.414886,185.789307 259.682220,186.693298 
	C259.652130,183.620041 266.344696,179.870148 272.374695,180.232132 
	C270.640961,181.559311 269.466858,182.458084 268.136841,183.634430 
	C267.980927,183.912003 267.920990,183.914185 267.913940,183.943344 
z"/>
<path fill="#096DB7" opacity="1.000000" stroke="none" 
	d="
M230.999512,172.999405 
	C230.999023,172.998810 231.041367,172.974884 231.021271,172.987946 
	C231.001175,173.000992 231.000000,173.000000 230.999512,172.999405 
z"/>
</svg>